<?xml version="1.0" encoding="UTF-8"?>
<svg id="blueberry-main" data-name="Layer 2" xmlns="http://www.w3.org/2000/svg" viewBox="0 0 188.01 184.56">
  <g id="blueberry">
    <circle id="main-blueberry" cx="92.28" cy="92.28" r="90.28" style="fill: #2d4e94; stroke: #18104b; stroke-miterlimit: 10; stroke-width: 4px;"/>
    <path id="blueberry-stem" d="M126.8,33.45c2.32-3.89,3.46-8.35,4.57-12.75,2.45,4.28,5.27,8.35,8.41,12.14,1.19,1.44,2.47,2.88,4.14,3.72,2,1.01,4.34,1.06,6.58,1.09,6.53.08,13.13.16,19.48-1.34.36,3.97-.08,8.02-1.28,11.82-.85,2.71-2.1,5.44-1.7,8.25.22,1.56.94,3.01,1.77,4.35,3.77,6.09,10.15,10.5,17.17,11.87.39,2.11-1.49,3.89-3.2,5.17-5.98,4.48-12.27,8.55-18.82,12.15-2.08,3.73-1.69,8.45,0,12.38s4.52,7.23,7.3,10.47c-8.98-.46-17.91-1.8-26.63-3.99-2.05-.52-4.23-1.08-6.24-.43-1.72.55-3.03,1.9-4.41,3.07-5.66,4.76-13.54,6.77-20.79,5.3-.3-5.02-.61-10.05-.91-15.07-.03-.47-.07-.98-.38-1.34-.41-.49-1.14-.52-1.78-.52-5.94.01-11.87.03-17.81.04-.73,0-1.53-.02-2.08-.5-1.21-1.05-.18-3,.89-4.19,3.69-4.12,7.64-8.01,11.8-11.64-4.93-3.49-9.85-6.98-14.78-10.47-2.6-1.84-5.26-3.75-7.04-6.39-1.51-2.25-2.13-5.65-.09-7.43.98-.85,2.34-1.11,3.64-1.2,2.79-.19,5.59.21,8.38,0s5.72-1.15,7.38-3.39c2.45-3.32,1.25-7.98-.05-11.9-1.13-3.41-3.39-10.24-3.39-10.24,0,0,7.13,3.37,8.5,3.95,3.07,1.3,6.19,2.5,9.34,3.61,5.25,1.85,9.38-2.18,12.02-6.6Z" style="fill: #262262; stroke: #170f4a; stroke-linecap: round; stroke-linejoin: round; stroke-width: 4px;"/>
    <circle id="stem-circle" cx="134.66" cy="71.76" r="27.62" style="fill: #2d4e94; stroke: #18104b; stroke-miterlimit: 10; stroke-width: 4px;"/>
  </g>
</svg>