<?xml version="1.0" encoding="UTF-8"?>
<svg id="Layer_2" data-name="Layer 2" xmlns="http://www.w3.org/2000/svg" viewBox="0 0 160.53 160.53">
  <g id="orange">
    <path id="orange-peel" d="M130.47,130.47c33.56-33.56,37.03-85.77,10.33-122.94-4.78-6.66-14.41-7.44-20.23-1.62L5.92,120.57c-5.82,5.82-5.04,15.45,1.62,20.23,37.17,26.69,89.38,23.22,122.94-10.33Z" style="fill: #f7941d; stroke: #f47529; stroke-linecap: round; stroke-linejoin: round; stroke-width: 4px;"/>
    <g id="orange-slices">
      <path id="slice4" d="M144.28,63.54l-56.5,1.17c-4.95.1-7.55-5.83-4.12-9.4L122.78,14.54c2.25-2.35,6.02-2.26,8.18.17,10.29,11.57,17.1,26.34,18.73,42.67.32,3.25-2.15,6.09-5.41,6.16Z" style="fill: #ffc541; stroke: #f36c36; stroke-linejoin: round; stroke-width: 4px;"/>
      <path id="slice3" d="M141.59,69.64h-56.56c-4.95,0-7.43,5.99-3.93,9.49l39.99,39.99c2.3,2.3,6.07,2.14,8.18-.34,10.06-11.79,16.57-26.71,17.86-43.09.26-3.25-2.28-6.05-5.54-6.05Z" style="fill: #ffc541; stroke: #f36c36; stroke-linejoin: round; stroke-width: 4px;"/>
      <path id="slice2" d="M67.26,143.96v-56.51c0-4.95,5.98-7.43,9.48-3.93l39.96,39.96c2.3,2.3,2.13,6.06-.34,8.17-11.78,10.05-26.68,16.55-43.05,17.85-3.25.26-6.05-2.27-6.05-5.54Z" style="fill: #ffc541; stroke: #f36c36; stroke-linejoin: round; stroke-width: 4px;"/>
      <path id="slice1" d="M61.15,144.42v-55.79c0-4.89-5.91-7.33-9.36-3.88L12.34,124.2c-2.27,2.27-2.11,5.99.33,8.07,11.63,9.92,26.35,16.34,42.51,17.62,3.21.25,5.97-2.24,5.97-5.47Z" style="fill: #ffc541; stroke: #f36c36; stroke-linejoin: round; stroke-width: 4px;"/>
    </g>
  </g>
</svg>