<?xml version="1.0" encoding="UTF-8"?>
<svg id="Layer_2" data-name="Layer 2" xmlns="http://www.w3.org/2000/svg" viewBox="0 0 652.51 434.15">
  <defs>
    <style>
      .cls-1 {
        fill: #231f20;
      }
    </style>
  </defs>
  <g id="Layer_1-2" data-name="Layer 1">
    <g>
      <g>
        <path class="cls-1" d="M195.7,144.97s14.33-9.79,24.46,0c0,0,19.23-9.51,33.4-4.67,0,0-15.18-24.52-3.54-34.13,11.64-9.62,56.41-17.21,48.45,30.37,0,0,18.36-22.78,35.06-10.12,0,0-10.63-18.73,3.04-32.39,13.67-13.67,24.8-20.75,37.96-15.69,0,0,26.82-43.53,47.07,2.53,13.04,29.67,40.14,7.67,57.79-11.74C438.41,26.61,380.05,0,315.24,0c-76.18,0-143.46,36.76-184.02,92.9,23.06-6.57,53.81-3.52,64.48,52.06Z"/>
        <path class="cls-1" d="M163.38,376.86c39.96,35.56,93.28,57.29,151.86,57.29,83.22,0,155.81-43.86,194.55-108.95-156.02,64.29-294.3,57.51-346.41,51.66Z"/>
      </g>
      <g>
        <g>
          <path class="cls-1" d="M215.03,367.26c-35.49,0-68.65-2.85-98.07-8.58C48.34,345.31,7.1,317.13.84,279.34c-3.51-21.17,4-42.91,22.33-64.61,4.9-5.8,13.48-6.45,19.16-1.44,5.68,5.01,6.32,13.77,1.41,19.57-12.79,15.14-18.21,29.22-16.12,41.85,4.17,25.16,38.58,45.83,94.42,56.71,61.1,11.9,139.79,10.67,221.58-3.46,175.99-30.4,289.48-106.85,281.26-156.44-1.44-8.73-6.59-17-15.29-24.59-5.71-4.98-6.38-13.73-1.51-19.56,4.87-5.83,13.44-6.52,19.16-1.54,13.68,11.93,21.9,25.75,24.44,41.06,6.26,37.79-23.61,78.25-84.11,113.93-56.59,33.37-134.52,59.83-219.41,74.5-46,7.94-91.18,11.94-133.13,11.94Z"/>
          <g>
            <path class="cls-1" d="M69.5,188c13.3-57.24,39.22-89.31,77.83-80.34,34.51,8.02,48.57,41.88,32.61,110.61-13.3,57.23-38.78,91.14-76.3,82.43-34.78-8.08-49.66-45.89-34.14-112.7ZM158.82,191.14c7.64-32.86.02-55.99-16.96-59.93-18.07-4.19-35.19,16.07-42.25,46.47-7.13,30.67.19,52.58,19.36,57.03,18.35,4.26,32.28-10.97,39.85-43.56Z"/>
            <path class="cls-1" d="M197.51,292.65c-.25-16.02,1.16-33.76.19-59.34l-1.92-50.87c-.55-17.14,1.53-27.86,10.81-28.01,8.43-.13,13.83,3.16,14.11,20.87.02,1.41,2.5-2.29,5.52-6.56,4.67-6.82,10.78-11.98,18.93-12.11,12.37-.19,17.3,9.29,17.44,18.29l.16,28.4c.09,5.91-.99,8.74-4.64,8.79-3.66.06-6.57-6.36-16.41-6.21-8.15.13-21.23,9.33-20.85,33.23.45,28.96,1.78,41.59,1.96,53.12.19,12.37-1.1,19.7-11.22,19.86-10.12.16-13.89-7.09-14.08-19.46Z"/>
            <path class="cls-1" d="M320.7,294.09c-6.8-4.5-7.26-3.84-9.19,4.5-1.6,5.43-5.4,8.11-10.39,8.99-7.75,1.39-9.67-4.56-12.04-17.84l-13.04-76.21c-4.22-25.23-11.66-60.46-15.52-78.91-2.45-12.13-3.35-21.96,7.16-23.84,10.24-1.83,16.4,7.06,18.58,19.25,1.14,6.36,1.68,9.41,2.64,16.38,1.3,8.91,5.1,9.37,12.21,4.39,3.86-2.4,8.41-4.08,13.39-4.96,24.63-4.4,43.34,13.97,52.23,63.79,7.91,44.28,9.87,85.63-24.45,91.76-4.43.79-13.7-1.55-21.58-7.29ZM346.59,207.22c-3.06-17.16-9.54-37.43-27.53-34.21-20.21,3.61-22.54,25.73-19.52,42.61,4.2,23.53,18.52,30.11,29.58,28.13,18.27-3.26,20.09-21.87,17.47-36.53Z"/>
            <path class="cls-1" d="M397.49,267.26c-4.62-15.34-7.97-31.37-15.35-55.86l-16.13-53.57c-4.95-16.42-3.47-21.27,5.42-23.95,8.08-2.43,12.92-.96,18.03,16,4.3,14.27,6.41,24.2,15.57,54.63,8.43,28,14.72,44.01,18.04,55.05,3.57,11.85,2.45,19.82-7.25,22.74-9.69,2.92-14.76-3.19-18.33-15.04Z"/>
            <path class="cls-1" d="M448.12,235.23c-2.43-5.68-4.79-12.63-24.14-57.87-18.57-43.43-29.59-67.77-34.71-79.03-6.67-14.89-6.22-22.41,1.53-25.73,8.02-3.42,13.48.05,18.78,12.46,2.65,6.21,6.15,15.1,10.68,25.7,1.44,3.37,4.02,4.4,7.38,2.96l11.38-4.86c8.79-3.76,13.96-3.83,15.5-.21,6.41,14.99-24.79,24.97-13.63,51.08l3.76,8.79c12.05,28.17,15.96,32.31,23.71,29,10.34-4.42,4.99-11.92,10.16-14.13,3.1-1.33,11.44,11.01,18.4,27.29,10.83,25.33,8.32,38.03-9.52,45.66-16.8,7.19-29.24,2.41-39.3-21.11Z"/>
            <path class="cls-1" d="M527.31,212.83c-9.19-14.14-17.94-26.57-20.35-40.08-3.07-23.82,5.37-65.52,6.49-81.33-4.39,2.52-12.02,7.82-21.45,13.94-4.95,3.22-1.02,7.71,1.12,11.01,3.98,6.13,1.34,11.87-3.14,14.78-7.07,4.59-14.77,2.56-19.82-5.23-5.97-9.19-17.83-22.27-.62-33.46,10.84-7.05,38.34-24.59,48-30.86,8.48-5.52,10.72-2.61,12.93,1.32,1.99,3.06,7.06,9.83,6.68,15.44-1.33,20.65-5.64,41.88-5.99,72.29.01,12.4,5.14,14.09,19.05,5.06,22.63-14.71,2.89-20.32,11.85-26.14,5.42-3.52,13.3,2.42,24.64,19.86,18.69,28.76,16.2,41.44-7.84,57.06-25.69,16.7-41.58,21.66-51.54,6.34Z"/>
          </g>
        </g>
        <path class="cls-1" d="M386.99,127.9l-18.57-5.96-11.41,15.82c-.61.84-1.94.42-1.94-.62l-.07-19.51-18.57-5.96c-.99-.32-.99-1.72,0-2.04l18.53-6.09-.07-19.51c0-1.04,1.33-1.48,1.94-.64l11.52,15.74,18.53-6.09c.99-.32,1.81.8,1.21,1.65l-11.41,15.82,11.52,15.74c.61.84-.2,1.97-1.19,1.66Z"/>
      </g>
    </g>
  </g>
</svg>