<?xml version="1.0" encoding="UTF-8"?>
<svg id="Layer_2" data-name="Layer 2" xmlns="http://www.w3.org/2000/svg" viewBox="0 0 205.62 306.46">
  <g id="pineapple">
    <g id="pineapple-body">
      <path d="M175.65,202.84c0,56.12-20.74,101.62-77.11,101.62-50.87,0-77.11-45.5-77.11-101.62s25.21-101.62,77.11-101.62c58.4,0,77.11,45.5,77.11,101.62Z" style="fill: #f7941d; stroke: #fbb040; stroke-linejoin: round; stroke-width: 4px;"/>
      <line x1="47.85" y1="122" x2="175.62" y2="199.13" style="fill: none; stroke: #fbb040; stroke-linejoin: round; stroke-width: 4px;"/>
      <line x1="80.82" y1="100.31" x2="169.29" y2="153.61" style="fill: none; stroke: #fbb040; stroke-linejoin: round; stroke-width: 4px;"/>
      <line x1="30.23" y1="150.69" x2="172.38" y2="238.45" style="fill: none; stroke: #fbb040; stroke-linejoin: round; stroke-width: 4px;"/>
      <line x1="22.13" y1="187.11" x2="159.85" y2="272.14" style="fill: none; stroke: #fbb040; stroke-linejoin: round; stroke-width: 4px;"/>
      <line x1="23.5" y1="229.14" x2="134.72" y2="296.29" style="fill: none; stroke: #fbb040; stroke-linejoin: round; stroke-width: 4px;"/>
      <line x1="149.9" y1="122" x2="22.13" y2="199.13" style="fill: none; stroke: #fbb040; stroke-linejoin: round; stroke-width: 4px;"/>
      <line x1="116.92" y1="100.31" x2="28.46" y2="153.61" style="fill: none; stroke: #fbb040; stroke-linejoin: round; stroke-width: 4px;"/>
      <line x1="167.52" y1="150.69" x2="25.37" y2="238.45" style="fill: none; stroke: #fbb040; stroke-linejoin: round; stroke-width: 4px;"/>
      <line x1="175.62" y1="187.11" x2="37.89" y2="272.14" style="fill: none; stroke: #fbb040; stroke-linejoin: round; stroke-width: 4px;"/>
      <line x1="174.25" y1="229.14" x2="63.03" y2="296.29" style="fill: none; stroke: #fbb040; stroke-linejoin: round; stroke-width: 4px;"/>
    </g>
    <g id="pineapple-leaves">
      <path d="M94.91,107.39S75.41,22.63,112.54,2c0,0,18.76,87.46-17.63,105.39Z" style="fill: #006838; stroke: #00542b; stroke-linejoin: round; stroke-width: 4px;"/>
      <path d="M102.28,102.92s34.39-71.89,78.33-57.65c0,0-36.64,73.13-78.33,57.65Z" style="fill: #006838; stroke: #00542b; stroke-linejoin: round; stroke-width: 4px;"/>
      <path d="M100.03,103.73S64.85,32.55,22.42,45.44c0,0,37.41,72.45,77.61,58.29Z" style="fill: #006838; stroke: #00542b; stroke-linejoin: round; stroke-width: 4px;"/>
      <path d="M103.59,103.44S29.8,65.04,2,90.39c0,0,76.45,38.48,101.59,13.05Z" style="fill: #006838; stroke: #00542b; stroke-linejoin: round; stroke-width: 4px;"/>
      <path d="M101.91,102.92s73.65-38.85,101.7-12.64c0,0-76.32,38.92-101.7,12.64Z" style="fill: #006838; stroke: #00542b; stroke-linejoin: round; stroke-width: 4px;"/>
    </g>
  </g>
</svg>