<?xml version="1.0" encoding="UTF-8"?>
<svg id="Layer_2" data-name="Layer 2" xmlns="http://www.w3.org/2000/svg" viewBox="0 0 215.49 327.75">
  <g id="strawberry">
    <path id="strawberry-2" data-name="strawberry" d="M209.41,166.95c-31.52,111.83-45.95,158.81-102.64,158.81S21.12,247.69,4.13,166.95c-14.3-67.97,45.95-102.64,102.64-102.64s124.09,26.55,102.64,102.64Z" style="fill: #ed1b30; stroke: #af0f1f; stroke-linejoin: round; stroke-width: 4px;"/>
    <g id="right-seeds">
      <path d="M178.83,142.11c.43-2.17-1.1-4.28-3.26-4.75-2.29-.49-4.54.99-5,3.28-.69,3.47,1.25,7.29,1.25,7.29.26,1.39,2.07,1.78,2.87.61,0,0,3.4-2.71,4.14-6.43Z" style="fill: #fbb040; stroke: #db9a38; stroke-linejoin: round; stroke-width: 3px;"/>
      <path d="M172.8,198.58c.54-2.14-.88-4.33-3.02-4.9-2.27-.61-4.59.76-5.16,3.03-.86,3.43.88,7.34.88,7.34.19,1.4,1.98,1.88,2.83.75,0,0,3.53-2.54,4.46-6.22Z" style="fill: #fbb040; stroke: #db9a38; stroke-linejoin: round; stroke-width: 3px;"/>
      <path d="M158.11,250.55c.72-2.09-.5-4.39-2.58-5.15-2.21-.8-4.63.36-5.4,2.57-1.16,3.34.24,7.39.24,7.39.06,1.41,1.81,2.04,2.76,1,0,0,3.74-2.22,4.99-5.8Z" style="fill: #fbb040; stroke: #db9a38; stroke-linejoin: round; stroke-width: 3px;"/>
      <path d="M140.73,103.55c-1.35-1.75-.92-4.32.81-5.7,1.84-1.46,4.51-1.14,5.94.72,2.16,2.8,2.12,7.08,2.12,7.08.39,1.36-1.06,2.51-2.3,1.82,0,0-4.25-.91-6.57-3.92Z" style="fill: #fbb040; stroke: #db9a38; stroke-linejoin: round; stroke-width: 3px;"/>
      <path d="M130.12,293.88c1.35-1.75.92-4.32-.81-5.7-1.84-1.46-4.51-1.14-5.94.72-2.16,2.8-2.12,7.08-2.12,7.08-.39,1.36,1.06,2.51,2.3,1.82,0,0,4.25-.91,6.57-3.92Z" style="fill: #fbb040; stroke: #db9a38; stroke-linejoin: round; stroke-width: 3px;"/>
    </g>
    <g id="mid-seeds">
      <path d="M100.2,129.39c-.1-2.21,1.74-4.06,3.94-4.2,2.34-.14,4.34,1.67,4.44,4,.16,3.53-2.34,7.01-2.34,7.01-.47,1.34-2.31,1.44-2.93.17,0,0-2.95-3.2-3.12-6.99Z" style="fill: #fbb040; stroke: #db9a38; stroke-linejoin: round; stroke-width: 3px;"/>
      <path d="M100.2,180.2c-.1-2.21,1.74-4.06,3.94-4.2,2.34-.14,4.34,1.67,4.44,4,.16,3.53-2.34,7.01-2.34,7.01-.47,1.34-2.31,1.44-2.93.17,0,0-2.95-3.2-3.12-6.99Z" style="fill: #fbb040; stroke: #db9a38; stroke-linejoin: round; stroke-width: 3px;"/>
      <path d="M100.2,234.2c-.1-2.21,1.74-4.06,3.94-4.2,2.34-.14,4.34,1.67,4.44,4,.16,3.53-2.34,7.01-2.34,7.01-.47,1.34-2.31,1.44-2.93.17,0,0-2.95-3.2-3.12-6.99Z" style="fill: #fbb040; stroke: #db9a38; stroke-linejoin: round; stroke-width: 3px;"/>
    </g>
    <g id="left-seeds">
      <path d="M29.96,142.11c-.43-2.17,1.1-4.28,3.26-4.75,2.29-.49,4.54.99,5,3.28.69,3.47-1.25,7.29-1.25,7.29-.26,1.39-2.07,1.78-2.87.61,0,0-3.4-2.71-4.14-6.43Z" style="fill: #fbb040; stroke: #db9a38; stroke-linejoin: round; stroke-width: 3px;"/>
      <path d="M40.44,198.58c-.54-2.14.88-4.33,3.02-4.9,2.27-.61,4.59.76,5.16,3.03.86,3.43-.88,7.34-.88,7.34-.19,1.4-1.98,1.88-2.83.75,0,0-3.53-2.54-4.46-6.22Z" style="fill: #fbb040; stroke: #db9a38; stroke-linejoin: round; stroke-width: 3px;"/>
      <path d="M53.86,250.55c-.72-2.09.5-4.39,2.58-5.15,2.21-.8,4.63.36,5.4,2.57,1.16,3.34-.24,7.39-.24,7.39-.06,1.41-1.81,2.04-2.76,1,0,0-3.74-2.22-4.99-5.8Z" style="fill: #fbb040; stroke: #db9a38; stroke-linejoin: round; stroke-width: 3px;"/>
      <path d="M79.19,293.88c-1.35-1.75-.92-4.32.81-5.7,1.84-1.46,4.51-1.14,5.94.72,2.16,2.8,2.12,7.08,2.12,7.08.39,1.36-1.06,2.51-2.3,1.82,0,0-4.25-.91-6.57-3.92Z" style="fill: #fbb040; stroke: #db9a38; stroke-linejoin: round; stroke-width: 3px;"/>
      <path d="M71.23,103.55c1.35-1.75.92-4.32-.81-5.7-1.84-1.46-4.51-1.14-5.94.72-2.16,2.8-2.12,7.08-2.12,7.08-.39,1.36,1.06,2.51,2.3,1.82,0,0,4.25-.91,6.57-3.92Z" style="fill: #fbb040; stroke: #db9a38; stroke-linejoin: round; stroke-width: 3px;"/>
    </g>
    <path id="strawberry-leaf" d="M12.43,73.97c15.5-.56,31.18-1.11,46.38,1.63-6.29,5.41-9.43,13.17-10.34,20.89-.91,7.72.2,15.5,1.31,23.19,7.15-6.74,14.3-13.49,21.45-20.23,5.6-5.28,11.46-10.72,19.07-13.39-2.14,13.87.4,28.29,7.21,40.92,6.92-4.8,14.16-9.99,17.13-17.31,2.92-7.2,1.18-15.13,1.46-22.78.03-.78.13-1.65.8-2.15.52-.39,1.25-.46,1.93-.46,8.5-.09,15.28,6.06,20.44,12.04,6.37,7.37,12.06,15.2,16.97,23.4,3.05-7.27,9.44-13.7,9.62-21.45.14-5.94-3.54-11.54-8.46-15.59s-11-6.78-16.99-9.46c5.33-5.8,14.09-8.18,22.47-9.14s16.99-.82,25.09-2.95c-8.55-8.26-22.57-9.39-35.22-9.84-12.01-.43-24.42-.76-35.93,2.81-8.91,2.76-13.99,4.88-23.15,2.12-18.58-5.6-37.42-5.55-55.63,1.5-4.85,1.88-9.49,4.19-13.8,6.92-2.23,1.41-9.76,9.26-11.82,9.34Z" style="fill: #39b54a; stroke: #29923b; stroke-linejoin: round; stroke-width: 4px;"/>
    <path id="strawberry-stem" d="M93.71,64.31s4.58-54.64,14.04-62.81l4.35,3.83s-17.68,38.81-7.69,62.55l-10.69-3.58Z" style="fill: #39b54a; stroke: #29923b; stroke-linejoin: round; stroke-width: 3px;"/>
  </g>
</svg>