<?xml version="1.0" encoding="UTF-8"?>
<svg id="watermelon" data-name="Layer 2" xmlns="http://www.w3.org/2000/svg" viewBox="0 0 179.68 179.68">
  <g id="melon">
    <path id="melon-rind" d="M177.68,2H2c0,97.03,78.66,175.68,175.68,175.68h0V2Z" style="fill: #009746; stroke: #00632a; stroke-linejoin: round; stroke-width: 4px;"/>
    <path id="main-melon" d="M177.68,2H17.34c0,88.55,71.79,160.34,160.34,160.34h0V2Z" style="fill: #c61e45; stroke: #920d2f; stroke-linejoin: round; stroke-width: 4px;"/>
    <g id="melon-seeds">
      <path d="M54.34,36.56c-4.31.68-8.35-2.51-9.1-6.8-.79-4.56,2.31-8.88,6.86-9.59,6.89-1.09,14.27,3.03,14.27,3.03,2.72.62,3.34,4.22.98,5.7,0,0-5.61,6.49-13.01,7.66Z" style="fill: #2f1818; stroke: #1c0102; stroke-linejoin: round; stroke-width: 3px;"/>
      <path d="M90.07,92.49c-3.32,2.82-8.43,2.21-11.31-1.06-3.06-3.48-2.66-8.78.86-11.77,5.31-4.52,13.75-4.85,13.75-4.85,2.64-.89,5.04,1.86,3.81,4.36,0,0-1.41,8.47-7.11,13.32Z" style="fill: #2f1818; stroke: #1c0102; stroke-linejoin: round; stroke-width: 3px;"/>
      <path d="M145.38,125.91c-1.07,4.23-5.58,6.7-9.82,5.7-4.51-1.06-7.26-5.6-6.13-10.08,1.7-6.76,8.39-11.93,8.39-11.93,1.64-2.26,5.19-1.41,5.63,1.34,0,0,3.77,7.71,1.94,14.97Z" style="fill: #2f1818; stroke: #1c0102; stroke-linejoin: round; stroke-width: 3px;"/>
      <path d="M148.97,72.13c-2.7,3.43-7.83,3.84-11.3,1.2-3.68-2.81-4.34-8.08-1.49-11.7,4.31-5.48,12.52-7.48,12.52-7.48,2.42-1.4,5.31.82,4.59,3.52,0,0,.3,8.58-4.33,14.46Z" style="fill: #2f1818; stroke: #1c0102; stroke-linejoin: round; stroke-width: 3px;"/>
      <path d="M115.68,34.43c-4.12,1.42-8.66-1-10.15-5.1-1.58-4.35.71-9.14,5.07-10.65,6.59-2.28,14.58.48,14.58.48,2.79.13,4.02,3.57,1.96,5.44,0,0-4.39,7.38-11.46,9.82Z" style="fill: #2f1818; stroke: #1c0102; stroke-linejoin: round; stroke-width: 3px;"/>
    </g>
  </g>
</svg>